<?xml version="1.0" standalone="no"?>
<!DOCTYPE svg PUBLIC "-//W3C//DTD SVG 20010904//EN"
 "http://www.w3.org/TR/2001/REC-SVG-20010904/DTD/svg10.dtd">
<svg version="1.0" xmlns="http://www.w3.org/2000/svg"
 width="192.000000pt" height="192.000000pt" viewBox="0 0 192.000000 192.000000"
 preserveAspectRatio="xMidYMid meet">
<metadata>
Created by potrace 1.11, written by Peter Selinger 2001-2013
</metadata>
<g transform="translate(0.000000,192.000000) scale(0.100000,-0.100000)"
fill="#000000" stroke="none">
<path d="M0 960 l0 -960 960 0 960 0 0 960 0 960 -960 0 -960 0 0 -960z m655
623 c29 -10 66 -33 92 -60 l44 -43 394 0 395 0 0 -125 0 -125 -185 0 -185 0 0
-450 0 -450 -140 0 -140 0 0 450 0 450 -69 0 c-67 0 -69 -1 -95 -35 -56 -74
-170 -111 -262 -86 -182 49 -243 282 -109 416 69 70 164 91 260 58z"/>
<path d="M545 1453 c-30 -8 -73 -52 -80 -84 -15 -65 59 -139 125 -124 59 13
101 85 81 138 -19 49 -78 82 -126 70z"/>
</g>
</svg>
